<svg width="71" height="28" viewBox="0 0 71 28" fill="none" xmlns="http://www.w3.org/2000/svg">
<path d="M8.088 22.24C6.696 22.24 5.456 21.936 4.368 21.328C3.28 20.72 2.424 19.808 1.8 18.592C1.176 17.376 0.864 15.888 0.864 14.128C0.864 12.4 1.184 10.928 1.824 9.712C2.48 8.48 3.416 7.544 4.632 6.904C5.848 6.248 7.288 5.92 8.952 5.92C10.824 5.92 12.328 6.256 13.464 6.928C14.616 7.6 15.504 8.664 16.128 10.12L11.568 11.824C11.408 11.04 11.104 10.488 10.656 10.168C10.208 9.832 9.648 9.664 8.976 9.664C8.288 9.664 7.712 9.832 7.248 10.168C6.8 10.488 6.464 10.976 6.24 11.632C6.016 12.288 5.904 13.104 5.904 14.08C5.904 15.136 6.024 16 6.264 16.672C6.52 17.344 6.904 17.84 7.416 18.16C7.928 18.464 8.56 18.616 9.312 18.616C9.696 18.616 10.048 18.576 10.368 18.496C10.688 18.4 10.968 18.264 11.208 18.088C11.464 17.912 11.656 17.696 11.784 17.44C11.912 17.168 11.976 16.856 11.976 16.504V16.384H8.856V13.24H16.104V22H12.816L12.432 17.992L13.2 18.76C12.912 19.88 12.336 20.744 11.472 21.352C10.608 21.944 9.48 22.24 8.088 22.24ZM23.2003 6.16V22H18.3043V6.16H23.2003ZM38.3964 9.832H30.5484V12.592H36.8364V16.264H30.5484V22H25.6524V6.16H38.3964V9.832ZM53.4152 22H48.3752L47.4872 18.712H42.6632L41.7512 22H36.8552L42.1832 6.16H48.0632L53.4152 22ZM43.4792 15.544H46.6952L45.0872 9.64L43.4792 15.544ZM69.2454 6.16V22H63.8694L59.5494 14.152L58.5414 12.016H58.4934L58.5894 15.136V22H54.3174V6.16H59.6694L63.9894 14.008L65.0214 16.144H65.0454L64.9494 13.024V6.16H69.2454Z" fill="white"/>
<circle cx="20.7" cy="2.5" r="2.5" fill="#155EF3"/>
</svg>
