<?xml version="1.0" standalone="no"?>
<!DOCTYPE svg PUBLIC "-//W3C//DTD SVG 20010904//EN"
 "http://www.w3.org/TR/2001/REC-SVG-20010904/DTD/svg10.dtd">
<svg version="1.0" xmlns="http://www.w3.org/2000/svg"
 width="260.000000pt" height="260.000000pt" viewBox="0 0 260.000000 260.000000"
 preserveAspectRatio="xMidYMid meet">
<metadata>
Created by potrace 1.14, written by Peter Selinger 2001-2017
</metadata>
<g transform="translate(0.000000,260.000000) scale(0.100000,-0.100000)"
fill="#000000" stroke="none">
<path d="M2125 2497 c-63 -21 -110 -57 -146 -112 -30 -45 -33 -57 -34 -125 0
-79 18 -123 72 -178 71 -72 209 -94 306 -49 101 47 151 123 151 228 -1 100
-52 177 -149 224 -49 23 -146 29 -200 12z"/>
<path d="M875 1939 c-95 -9 -167 -19 -177 -25 -5 -3 -21 -8 -36 -10 -44 -8
-173 -67 -232 -106 -186 -125 -298 -314 -335 -568 -11 -72 -13 -262 -3 -336
51 -394 266 -641 618 -707 79 -15 244 -14 325 3 119 24 236 95 303 184 22 29
22 29 23 5 0 -13 2 -35 4 -49 4 -26 14 -109 14 -123 1 -4 81 -6 179 -5 l177 3
0 470 0 470 -393 3 -392 2 0 -170 0 -170 170 0 171 0 -7 -47 c-8 -63 -25 -95
-71 -131 -71 -55 -193 -78 -309 -56 -186 34 -274 189 -272 481 1 188 36 320
106 391 46 47 122 81 189 85 163 10 264 -54 306 -192 l12 -39 243 91 c156 59
242 96 242 105 0 29 -99 181 -155 237 -47 48 -128 103 -188 130 -136 60 -339
89 -512 74z"/>
<path d="M1975 1910 c-2 -3 -3 -389 -3 -858 l0 -852 266 2 267 3 0 848 c0 467
-2 852 -5 856 -6 8 -520 9 -525 1z"/>
</g>
</svg>
